HIERARCHY
ROOT Hips
{
	OFFSET 0.000000 0.000000 0.000000
	CHANNELS 6 Xposition Yposition Zposition Zrotation Yrotation Xrotation 
	JOINT LowerBack
	{
		OFFSET 0.000000 0.000000 0.000000
		CHANNELS 3 Zrotation Yrotation Xrotation
		JOINT Spine
		{
			OFFSET 0.028270 2.035590 -0.193380
			CHANNELS 3 Zrotation Yrotation Xrotation
			JOINT Spine1
			{
				OFFSET 0.056720 2.048850 -0.042750
				CHANNELS 3 Zrotation Yrotation Xrotation
				JOINT Neck
				{
					OFFSET 0.000000 0.000000 0.000000
					CHANNELS 3 Zrotation Yrotation Xrotation
					JOINT Neck1
					{
						OFFSET -0.054170 1.746240 0.172020
						CHANNELS 3 Zrotation Yrotation Xrotation
						JOINT Head
						{
							OFFSET 0.104070 1.761360 -0.123970
							CHANNELS 3 Zrotation Yrotation Xrotation
							End Site
							{
								OFFSET 0.000000 0.000000 0.000000
							}
						}
					}
				}
				JOINT LeftShoulder
				{
					OFFSET 0.000000 0.000000 0.000000
					CHANNELS 3 Zrotation Yrotation Xrotation
					JOINT LeftArm
					{
						OFFSET 3.362410 1.200890 -0.311210
						CHANNELS 3 Zrotation Yrotation Xrotation
						JOINT LeftForeArm
						{
							OFFSET 4.983000 -0.000000 -0.000000
							CHANNELS 3 Zrotation Yrotation Xrotation
							JOINT LeftHand
							{
								OFFSET 3.483560 -0.000000 -0.000000
								CHANNELS 3 Zrotation Yrotation Xrotation
								JOINT LeftFingerBase
								{
									OFFSET 0.000000 0.000000 0.000000
									CHANNELS 3 Zrotation Yrotation Xrotation
									JOINT LeftHandIndex1
									{
										OFFSET 0.715260 -0.000000 -0.000000
										CHANNELS 3 Zrotation Yrotation Xrotation
										End Site
										{
											OFFSET 0.000000 0.000000 0.000000
										}
									}
								}
								JOINT LThumb
								{
									OFFSET 0.000000 0.000000 0.000000
									CHANNELS 3 Zrotation Yrotation Xrotation
									End Site
									{
										OFFSET 0.000000 0.000000 0.000000
									}
								}
							}
						}
					}
				}
				JOINT RightShoulder
				{
					OFFSET 0.000000 0.000000 0.000000
					CHANNELS 3 Zrotation Yrotation Xrotation
					JOINT RightArm
					{
						OFFSET -3.136600 1.374050 -0.404650
						CHANNELS 3 Zrotation Yrotation Xrotation
						JOINT RightForeArm
						{
							OFFSET -5.241900 -0.000000 -0.000000
							CHANNELS 3 Zrotation Yrotation Xrotation
							JOINT RightHand
							{
								OFFSET -3.444170 -0.000000 -0.000000
								CHANNELS 3 Zrotation Yrotation Xrotation
								JOINT RightFingerBase
								{
									OFFSET 0.000000 0.000000 0.000000
									CHANNELS 3 Zrotation Yrotation Xrotation
									JOINT RightHandIndex1
									{
										OFFSET -0.622530 -0.000000 -0.000000
										CHANNELS 3 Zrotation Yrotation Xrotation
										End Site
										{
											OFFSET 0.000000 0.000000 0.000000
										}
									}
								}
								JOINT RThumb
								{
									OFFSET 0.000000 0.000000 0.000000
									CHANNELS 3 Zrotation Yrotation Xrotation
									End Site
									{
										OFFSET 0.000000 0.000000 0.000000
									}
								}
							}
						}
					}
				}
			}
		}
	}
}
}
MOTION
Frames: 12
Frame Time: 0.008333
-18.678159 16.245042 -1.747185 27.830180 82.841699 59.834076 9.496995 -2.493436 0.962691 1.342216 -2.909467 -2.504011 -5.538811 -3.031613 1.984970 7.788230 -4.617367 -0.149037 -3.682077 -0.329010 1.722010 0.000000 0.000000 0.000000 -10.492500 -0.983342 0.607533 -75.679371 -12.667324 27.411223 -2.371138 -32.129647 -0.006234 3.772960 -0.625827 -0.024805 -0.084804 0.129912 0.000000 0.000000 0.000000 0.000000 0.000000 0.000000 0.000000 14.374179 -7.836537 0.015161 58.352659 -11.381366 -19.235094 3.854746 16.488114 0.011315 1.148933 4.724568 0.042861 0.123806 -0.039740 -0.000000 0.000000 0.000000 0.000000 0.000000 0.000000 0.000000 
-18.513075 16.219870 -1.699290 22.012596 82.946391 54.240471 10.187027 -2.405396 1.195376 1.460479 -2.831814 -2.471609 -5.614334 -2.958155 1.923982 7.964086 -4.078160 -0.037395 -3.726834 -0.331613 1.745713 0.000000 0.000000 0.000000 -10.730927 -1.042543 0.652216 -75.714881 -12.317876 26.310301 -2.315737 -31.593666 -0.006756 3.992408 -0.641327 -0.026744 -0.080551 0.128813 0.000000 0.000000 0.000000 0.000000 0.000000 0.000000 0.000000 14.705584 -7.345937 0.040096 57.789744 -10.582396 -19.128391 3.856161 15.854615 0.010801 0.972511 4.564025 0.034252 0.123848 -0.038002 -0.000000 0.000000 0.000000 0.000000 0.000000 0.000000 0.000000 
-18.352514 16.201887 -1.651421 16.241510 83.115260 48.648149 10.902641 -2.360797 1.470612 1.586440 -2.792120 -2.425109 -5.699438 -2.922865 1.874423 8.208556 -3.506767 0.118955 -3.775936 -0.334577 1.779938 0.000000 0.000000 0.000000 -10.872131 -1.148369 0.696774 -75.787067 -12.077768 25.191855 -2.261497 -30.897407 -0.007401 4.273109 -0.644613 -0.028684 -0.076745 0.127427 0.000000 0.000000 0.000000 0.000000 0.000000 0.000000 0.000000 15.107426 -6.870547 0.052480 57.225961 -9.611029 -19.099937 3.849737 15.183698 0.010235 0.754526 4.394550 0.024541 0.123724 -0.035997 -0.000000 0.000000 0.000000 0.000000 0.000000 0.000000 0.000000 
-18.196481 16.190984 -1.602908 10.751887 83.359348 43.293144 11.609396 -2.364340 1.769637 1.713813 -2.794551 -2.368122 -5.791010 -2.929781 1.838486 8.524762 -2.920200 0.319452 -3.828354 -0.337848 1.824861 0.000000 0.000000 0.000000 -10.901101 -1.311585 0.740526 -75.895990 -11.948169 24.094638 -2.209469 -30.046796 -0.008138 4.602826 -0.632337 -0.030425 -0.073424 0.125804 0.000000 0.000000 0.000000 0.000000 0.000000 0.000000 0.000000 15.580307 -6.429551 0.050862 56.675778 -8.487186 -19.165691 3.833918 14.503223 0.009642 0.490543 4.226437 0.013830 0.123403 -0.033834 -0.000000 0.000000 0.000000 0.000000 0.000000 0.000000 0.000000 
-18.045296 16.186833 -1.553182 5.744897 83.687752 38.379743 12.269434 -2.413624 2.071722 1.834916 -2.837088 -2.306665 -5.885439 -2.976772 1.810817 8.912111 -2.337687 0.568104 -3.883457 -0.341467 1.882140 0.000000 0.000000 0.000000 -10.799344 -1.589626 0.781878 -76.040566 -11.873178 22.992926 -2.157893 -29.086534 -0.008912 4.957572 -0.600572 -0.031267 -0.070275 0.123968 0.000000 0.000000 0.000000 0.000000 0.000000 0.000000 0.000000 16.120795 -6.043032 0.038138 56.153361 -7.238936 -19.320274 3.807253 13.841657 0.009061 0.170957 4.073125 0.001819 0.122883 -0.031672 -0.000000 0.000000 0.000000 0.000000 0.000000 0.000000 0.000000 
-17.898379 16.189049 -1.501945 1.320582 84.106066 34.015926 12.858018 -2.501943 2.360294 1.944539 -2.914491 -2.243218 -5.979411 -3.058328 1.796017 9.363804 -1.780858 0.854868 -3.939541 -0.345253 1.949262 0.000000 0.000000 0.000000 -10.573978 -1.958529 0.819541 -76.210276 -11.876124 21.964157 -2.109792 -28.028296 -0.009678 5.315384 -0.545235 -0.030907 -0.067463 0.122003 0.000000 0.000000 0.000000 0.000000 0.000000 0.000000 0.000000 16.719851 -5.724953 0.013505 55.672648 -5.882586 -19.568017 3.768769 13.225443 0.008526 -0.208160 3.950432 -0.011390 0.122138 -0.029693 -0.000000 0.000000 0.000000 0.000000 0.000000 0.000000 0.000000 
-17.755609 16.197172 -1.449098 -2.485965 84.615031 30.247709 13.361784 -2.618439 2.620580 2.039585 -3.018257 -2.180195 -6.069864 -3.165748 1.797383 9.868799 -1.265703 1.168220 -3.994981 -0.349031 2.023312 0.000000 0.000000 0.000000 -10.240625 -2.387111 0.852166 -76.392961 -11.979416 21.085366 -2.068457 -26.888797 -0.010385 5.650216 -0.462016 -0.028545 -0.065134 0.120017 0.000000 0.000000 0.000000 0.000000 0.000000 0.000000 0.000000 17.364254 -5.480085 -0.023070 55.246858 -4.439761 -19.906508 3.718081 12.683092 0.008070 -0.648135 3.873884 -0.026098 0.121141 -0.028071 -0.000000 0.000000 0.000000 0.000000 0.000000 0.000000 0.000000 
-17.616611 16.210744 -1.394840 -5.688039 85.210470 27.073712 13.777739 -2.749290 2.840415 2.119006 -3.137254 -2.121502 -6.153638 -3.287896 1.810201 10.411615 -0.809181 1.501918 -4.048687 -0.352740 2.102987 0.000000 0.000000 0.000000 -9.812377 -2.894904 0.878050 -76.578529 -12.146934 20.354001 -2.033833 -25.723999 -0.010982 5.929475 -0.345150 -0.023779 -0.063083 0.118077 0.000000 0.000000 0.000000 0.000000 0.000000 0.000000 0.000000 18.035841 -5.315552 -0.067112 54.884697 -2.930621 -20.306652 3.655498 12.232506 0.007723 -1.153058 3.860003 -0.043103 0.119905 -0.026988 -0.000000 0.000000 0.000000 0.000000 0.000000 0.000000 0.000000 
-17.480911 16.229304 -1.339623 -8.382146 85.883698 24.411678 14.117770 -2.882173 3.011064 2.185191 -3.261834 -2.068848 -6.228327 -3.415139 1.835930 10.973744 -0.407324 1.843543 -4.098529 -0.356185 2.185073 0.000000 0.000000 0.000000 -9.322169 -3.429572 0.897734 -76.752813 -12.411607 19.851541 -2.010012 -24.552181 -0.011436 6.126171 -0.188202 -0.016111 -0.061500 0.116316 0.000000 0.000000 0.000000 0.000000 0.000000 0.000000 0.000000 18.711332 -5.211596 -0.118127 54.598228 -1.388755 -20.774268 3.582174 11.898360 0.007495 -1.710273 3.922142 -0.062905 0.118386 -0.026588 -0.000000 0.000000 0.000000 0.000000 0.000000 0.000000 0.000000 
-17.348019 16.252406 -1.283962 -10.663312 86.619500 22.178803 14.393843 -3.005277 3.126426 2.240586 -3.382219 -2.025031 -6.291626 -3.537837 1.869761 11.535347 -0.063626 2.185662 -4.143225 -0.359301 2.267857 0.000000 0.000000 0.000000 -8.793831 -3.990631 0.911050 -76.906353 -12.749669 19.573018 -1.997558 -23.426185 -0.011713 6.213739 0.012681 -0.005236 -0.060252 0.114788 0.000000 0.000000 0.000000 0.000000 0.000000 0.000000 0.000000 19.367648 -5.160053 -0.171885 54.392250 0.166925 -21.274247 3.499795 11.688396 0.007383 -2.313649 4.070409 -0.086804 0.116617 -0.026968 -0.000000 0.000000 0.000000 0.000000 0.000000 0.000000 0.000000 
-17.217867 16.279640 -1.228247 -12.056606 87.350599 20.860239 14.581093 -3.100703 3.190306 2.277923 -3.481422 -1.991622 -6.341159 -3.639224 1.905250 12.078016 0.251676 2.526625 -4.180391 -0.361996 2.351079 0.000000 0.000000 0.000000 -8.252289 -4.552739 0.919548 -77.025898 -13.151412 19.523800 -1.998732 -22.391486 -0.011783 6.169807 0.265757 0.008645 -0.059309 0.113449 0.000000 0.000000 0.000000 0.000000 0.000000 0.000000 0.000000 19.978750 -5.113235 -0.224119 54.281289 1.691738 -21.841483 3.410318 11.603870 0.007387 -2.930288 4.322917 -0.115599 0.114493 -0.028314 -0.000000 0.000000 0.000000 0.000000 0.000000 0.000000 0.000000 
-17.090057 16.310617 -1.173660 -12.762946 88.058894 20.268739 14.719121 -3.158128 3.203831 2.305434 -3.550295 -1.966875 -6.377215 -3.710136 1.947317 12.578503 0.481468 2.843821 -4.212668 -0.364298 2.428498 0.000000 0.000000 0.000000 -7.722721 -5.102231 0.918123 -77.112886 -13.614922 19.685464 -2.011401 -21.478257 -0.011636 5.996265 0.549145 0.023431 -0.058580 0.112321 -0.000000 0.000000 0.000000 0.000000 0.000000 0.000000 0.000000 20.537551 -5.122262 -0.271844 54.234703 3.245395 -22.253855 3.315975 11.648644 0.007411 -3.604176 4.638920 -0.151492 0.112428 -0.030278 -0.000000 0.000000 0.000000 0.000000 0.000000 0.000000 0.000000 
